# xmcd
#
# Track frame offsets: 
#        150
#        21815
#        47882
#        69495
#        88021
#        113103
#        138541
#        158881
#        176857
#        194232
#        207159
#        229220
#        248379
#        266502
#        290263
#        312566
#
# Disc length: 4619 seconds
#
# Revision: 2
# Processed by: cddbd v1.5.2PL0 Copyright (c) Steve Scherf et al.
# Submitted via: ExactAudioCopyFreeDBPlugin 1.0
#
DISCID=ee120910
DTITLE=CDS制作 - TEST-CD-02A【试音极品】
DYEAR=2013
DGENRE=stereo
TTITLE0=大峡谷
TTITLE1=班得瑞之仙境
TTITLE2=我爱你塞北的雪
TTITLE3=莫扎特弦乐小夜曲
TTITLE4=春江花月夜
TTITLE5=天鹅湖之华丽圆舞曲
TTITLE6=沂蒙颂
TTITLE7=干怀朋友
TTITLE8=献给母亲的歌
TTITLE9=斯特劳斯之华丽华尔兹
TTITLE10=大海
TTITLE11=四季歌
TTITLE12=我和草原有个约定
TTITLE13=天路
TTITLE14=柏林之声-人声测试T1
TTITLE15=柏林之声-人声测试T2
EXTD=
EXTT0=
EXTT1=
EXTT2=
EXTT3=
EXTT4=
EXTT5=
EXTT6=
EXTT7=
EXTT8=
EXTT9=
EXTT10=
EXTT11=
EXTT12=
EXTT13=
EXTT14=
EXTT15=
PLAYORDER=
